<?xml version="1.0" encoding="UTF-8"?>
<svg viewBox="0 0 151.25 76.25" xmlns="http://www.w3.org/2000/svg">
 <g transform="matrix(1.25,0,0,-1.25,0,76.25)">
  <g transform="scale(.24)">
   <path d="m106.75 132.32-3.227-17.379c13.946-8.957 25.403-22.23 32.082-36.496 6.914-14.766-1.136-31.297-12.382-44.754-2.743-3.2812-5.282-7.2109-4.454-12.062 10.184 5.1133 19.211 9.6563 26.747 18.516 0-4.1132-1.118-8.7304 0.554-12.062 0.422-0.8398 4.735-0.7539 5.016-0.0429 9.816 24.953 1.383 54.273 13.484 76.52l-57.82 27.761" fill="#854f23"/>
   <path d="m106.75 132.32-3.227-17.379c13.946-8.957 25.403-22.23 32.082-36.496 6.914-14.766-1.136-31.297-12.382-44.754-2.743-3.2812-5.282-7.2109-4.454-12.062 10.184 5.1133 19.211 9.6563 26.747 18.516 0-4.1132-1.118-8.7304 0.554-12.062 0.422-0.8398 4.735-0.7539 5.016-0.0429 9.816 24.953 1.383 54.273 13.484 76.52l-57.82 27.761z" fill="none" stroke="#fff" stroke-width="2.5"/>
   <path d="m161.66 107.4c26.907-15.828 54.86-24.148 82.973-33.8-3.367-20.391-21.762-31.883-32.914-47.316-3.598-5.9141 9.781 2.1132 14.402 4.1171-1.656-3.6718-8.742-9.2578-6.172-10.285 2.059-3.8594 18.571 7.793 24.684 16.457 0-4.8008-8.742-21.086 0-14.402 13.836 18.621 23.394 39.586 33.699 60.293 4.031 8.0977-9.808 8.9024-13.156 15.809-4.477 9.2425-8.926 18.222-8.199 28.812l-95.317-19.684" fill="#854f23"/>
   <path d="m161.66 107.4c26.907-15.828 54.86-24.148 82.973-33.8-3.367-20.391-21.762-31.883-32.914-47.316-3.598-5.9141 9.781 2.1132 14.402 4.1171-1.656-3.6718-8.742-9.2578-6.172-10.285 2.059-3.8594 18.571 7.793 24.684 16.457 0-4.8008-8.742-21.086 0-14.402 13.836 18.621 23.394 39.586 33.699 60.293 4.031 8.0977-9.808 8.9024-13.156 15.809-4.477 9.2425-8.926 18.222-8.199 28.812l-95.317-19.684z" fill="none" stroke="#fff" stroke-width="2.5"/>
   <path d="m101.64 174.66c1.476 4.477-1.028 8.926-2.9144 11.774-6.6368 10.015-6.6758 19.254-13.551 29-6.3672 9.031-15.774 18.867-26.738 22.996-4.6289-37.543 13.34-44.797 22.629-65.828-13.203-15.926-24.73-32.641-38.164-48.403-1.6875-1.98-3.6367-5.656-6.7968-7.613-2.3008-1.426-3.0391-5.008-4.4102-7.754-4.1133 2.356-9.5078 0.711-11.625-0.926-6.539-5.066-10.461-14.207-4.1211-21.046 4.6485-5.0196 13.926-4.6524 19.297-1.6914 20.82 11.48 40.762 20.219 62.356 29.66 14.968 6.547 31.8 2.793 44.336-5.258 13.941-8.957 25.398-22.23 32.078-36.5 6.914-14.762-1.137-31.297-12.383-44.75-2.738-3.2812-5.281-7.2148-4.449-12.062 10.179 5.1133 19.207 9.6563 26.742 18.516 0-4.1132-1.113-8.7304 0.558-12.066 0.418-0.8359 4.731-0.75 5.012-0.039 9.817 24.953 1.387 54.273 13.484 76.52 2.223 4.0824 17.309 9.1834 25.512 4.3554 26.91-15.828 54.86-24.144 82.977-33.797-3.367-20.394-21.762-31.883-32.914-47.316-3.602-5.9141 9.777 2.1094 14.398 4.1133-1.656-3.668-8.742-9.2578-6.168-10.285 2.055-3.8555 18.567 7.793 24.684 16.457 0-4.8007-8.742-21.086 0-14.398 13.836 18.621 23.394 39.586 33.699 60.289 4.031 8.1015-9.813 8.9062-13.156 15.812-4.477 9.2419-8.93 18.219-8.199 28.813 9.039-20.497 23.96-36.821 41.593-50.864 38.235-30.449 80.532-53.18 129.15-54.051-50.055 11.312-93.364 44.238-122.82 88.86-31.215 47.289-40.437 116.26-103.68 125.78-47.637 7.176-86.79-19.226-126.31-46.527-13.313-9.196-23.242-13.383-40.113-11.77" fill="#854f23"/>
   <path d="m101.64 174.66c1.476 4.477-1.028 8.926-2.9144 11.774-6.6368 10.015-6.6758 19.254-13.551 29-6.3672 9.031-15.774 18.867-26.738 22.996-4.6289-37.543 13.34-44.797 22.629-65.828-13.203-15.926-24.73-32.641-38.164-48.403-1.6875-1.98-3.6367-5.656-6.7968-7.613-2.3008-1.426-3.0391-5.008-4.4102-7.754-4.1133 2.356-9.5078 0.711-11.625-0.926-6.539-5.066-10.461-14.207-4.1211-21.046 4.6485-5.0196 13.926-4.6524 19.297-1.6914 20.82 11.48 40.762 20.219 62.356 29.66 14.968 6.547 31.8 2.793 44.336-5.258 13.941-8.957 25.398-22.23 32.078-36.5 6.914-14.762-1.137-31.297-12.383-44.75-2.738-3.2812-5.281-7.2148-4.449-12.062 10.179 5.1133 19.207 9.6563 26.742 18.516 0-4.1132-1.113-8.7304 0.558-12.066 0.418-0.8359 4.731-0.75 5.012-0.039 9.817 24.953 1.387 54.273 13.484 76.52 2.223 4.0824 17.309 9.1834 25.512 4.3554 26.91-15.828 54.86-24.144 82.977-33.797-3.367-20.394-21.762-31.883-32.914-47.316-3.602-5.9141 9.777 2.1094 14.398 4.1133-1.656-3.668-8.742-9.2578-6.168-10.285 2.055-3.8555 18.567 7.793 24.684 16.457 0-4.8007-8.742-21.086 0-14.398 13.836 18.621 23.394 39.586 33.699 60.289 4.031 8.1015-9.813 8.9062-13.156 15.812-4.477 9.2419-8.93 18.219-8.199 28.813 9.039-20.497 23.96-36.821 41.593-50.864 38.235-30.449 80.532-53.18 129.15-54.051-50.055 11.312-93.364 44.238-122.82 88.86-31.215 47.289-40.437 116.26-103.68 125.78-47.637 7.176-86.79-19.226-126.31-46.527-13.313-9.196-23.242-13.383-40.113-11.77z" fill="none" stroke="#fff" stroke-width="2.5"/>
   <path d="m116.56 153.06c11.312 8.23 7.8 26.558 4.773 42-3.41 17.414-6.504 35.328-19.687 47.484-4.8285-29.402-16.696-60.332-2.059-88.457" fill="#854f23"/>
   <path d="m116.56 153.06c11.312 8.23 7.8 26.558 4.773 42-3.41 17.414-6.504 35.328-19.687 47.484-4.8285-29.402-16.696-60.332-2.059-88.457" fill="none" stroke="#fff" stroke-width="2.5"/>
  </g>
 </g>
</svg>
